<svg width="501" height="500" viewBox="0 0 501 500" fill="none" xmlns="http://www.w3.org/2000/svg">
<path d="M11.4511 379.274L0.681885 369.01V347.837C22.9235 365.429 50.4509 374.999 78.8082 374.999C107.166 374.999 134.693 365.429 156.935 347.837V369.01L146.165 379.274C128.013 396.586 103.892 406.245 78.8082 406.245C53.7244 406.245 29.6035 396.586 11.4511 379.274Z" fill="#59C2F2"/>
<path d="M0.681885 306.501V0C21.7465 20.0608 49.7201 31.25 78.8082 31.25C107.896 31.25 135.87 20.0608 156.935 0V306.501L146.165 316.765C128.013 334.077 103.892 343.735 78.8082 343.735C53.7244 343.735 29.6035 334.077 11.4511 316.765L0.681885 306.501ZM31.9212 124.991H125.667V93.75H31.9212V124.991ZM78.7941 437.509C50.4735 437.319 23.0107 427.768 0.681885 410.346V468.75C21.7465 488.811 49.7201 500 78.8082 500C107.896 500 135.87 488.811 156.935 468.75V410.346C134.597 427.772 107.124 437.323 78.7941 437.509Z" fill="#59C2F2"/>
<path d="M318.026 379.274L328.795 369.01V347.837C306.553 365.429 279.026 374.999 250.669 374.999C222.311 374.999 194.784 365.429 172.542 347.837V369.01L183.311 379.274C201.464 396.586 225.585 406.245 250.669 406.245C275.752 406.245 299.873 396.586 318.026 379.274Z" fill="#8ABF4F"/>
<path d="M172.542 306.501V0C193.607 20.0608 221.58 31.25 250.669 31.25C279.757 31.25 307.73 20.0608 328.795 0V306.501L318.026 316.765C299.873 334.077 275.752 343.735 250.669 343.735C225.585 343.735 201.464 334.077 183.311 316.765L172.542 306.501ZM203.782 124.991H297.556V93.75H203.81L203.782 124.991ZM250.683 437.509C222.362 437.319 194.899 427.768 172.57 410.346V468.75C193.635 488.811 221.609 500 250.697 500C279.785 500 307.758 488.811 328.823 468.75V410.346C306.485 427.772 279.012 437.323 250.683 437.509Z" fill="#8ABF4F"/>
<path d="M489.913 379.274L500.682 369.01V347.837C478.441 365.429 450.913 374.999 422.556 374.999C394.199 374.999 366.671 365.429 344.43 347.837V369.01L355.199 379.274C373.351 396.586 397.472 406.245 422.556 406.245C447.64 406.245 471.761 396.586 489.913 379.274Z" fill="#B533A5"/>
<path d="M344.43 306.501V0C365.494 20.0608 393.468 31.25 422.556 31.25C451.644 31.25 479.618 20.0608 500.682 0V306.501L489.913 316.765C471.761 334.077 447.64 343.735 422.556 343.735C397.472 343.735 373.351 334.077 355.199 316.765L344.43 306.501ZM375.669 124.991H469.415V93.75H375.669V124.991ZM422.542 437.509C394.221 437.321 366.758 427.77 344.43 410.346V468.75C365.494 488.811 393.468 500 422.556 500C451.644 500 479.618 488.811 500.682 468.75V410.346C478.345 427.772 450.872 437.323 422.542 437.509Z" fill="#B533A5"/>
</svg>
